<svg version="1.1" id="Layer_1" xmlns="http://www.w3.org/2000/svg" xmlns:xlink="http://www.w3.org/1999/xlink" x="0px" y="0px"
	 width="100%" viewBox="0 0 672 1024" enable-background="new 0 0 672 1024" xml:space="preserve">
<path fill="#000000" opacity="1.000000" stroke="none" 
	d="
M229.979248,561.006348 
	C236.161804,551.926270 239.686203,542.067322 243.015686,532.083496 
	C244.180252,528.591431 242.354828,527.646179 239.815079,526.664978 
	C229.982819,522.866028 220.621735,518.122131 212.081802,511.933502 
	C188.032211,494.505585 173.712723,471.337433 170.458908,441.515442 
	C169.896942,436.365051 169.850189,431.233246 169.539368,425.665497 
	C167.610550,426.328522 166.588974,427.767059 165.410217,428.971191 
	C151.891403,442.781891 136.818436,445.372040 120.783592,434.787537 
	C95.156326,417.871185 78.269783,394.144775 71.309334,364.130554 
	C68.322281,351.250061 71.873299,338.695648 77.471558,326.816437 
	C85.809875,309.122955 97.863655,294.061584 110.739189,279.577454 
	C125.856712,262.571228 142.127731,246.881088 161.866821,235.198425 
	C171.862213,229.282608 182.552551,225.289337 194.080200,223.592285 
	C205.485153,221.913284 216.051254,224.002319 225.220154,231.107132 
	C228.527802,233.670197 230.754456,233.124054 233.948395,231.017838 
	C257.585938,215.430527 283.740173,206.530365 311.655731,202.677826 
	C339.794006,198.794571 367.765472,199.384949 395.370239,206.764984 
	C403.586578,208.961578 411.589233,211.800995 419.309235,215.388489 
	C421.245728,216.288361 422.873077,216.719055 424.709137,214.933212 
	C441.149567,198.942764 460.915161,197.161484 481.883240,202.382019 
	C513.620605,210.283859 540.437622,227.553665 565.518311,247.789429 
	C579.071411,258.724457 591.328003,270.880493 599.617798,286.548767 
	C607.515320,301.475616 607.654968,316.967834 602.766846,332.561584 
	C596.327209,353.104584 586.247498,371.883911 572.535889,388.499237 
	C556.703796,407.684143 536.831787,410.292297 516.322449,396.453766 
	C514.982422,395.549622 513.565247,394.759857 511.217621,393.327148 
	C511.970520,398.018250 512.784790,401.670013 513.113647,405.365021 
	C515.794189,435.480225 507.262024,461.976624 487.185730,484.651428 
	C476.943451,496.219360 465.189240,506.053345 451.732300,513.615601 
	C447.095795,516.221130 446.632660,519.073975 447.876190,523.649292 
	C451.843933,538.247803 455.490692,552.920715 458.374817,567.795166 
	C463.011047,591.706116 462.730499,615.829041 462.142761,639.972168 
	C461.705109,657.949036 460.012878,675.892517 460.384979,693.890686 
	C460.567230,702.704651 461.131897,711.513489 462.310242,720.270752 
	C462.848297,724.269653 464.494904,726.798706 468.754669,728.023315 
	C476.219696,730.169373 482.695160,734.159485 488.033600,740.001892 
	C498.273926,751.209106 502.271729,773.677979 481.093781,785.515686 
	C474.738861,789.067871 467.872131,790.994751 460.689362,791.731201 
	C449.206299,792.908630 437.735992,793.040588 426.518005,789.768188 
	C409.132172,784.696594 400.538483,771.775757 395.739594,755.321716 
	C391.335693,740.221924 389.540985,724.724365 387.970306,709.167969 
	C387.877838,708.252197 388.229645,707.128235 386.872894,706.317383 
	C381.218018,712.274719 375.844299,718.620361 369.203766,723.640381 
	C367.742950,724.744690 366.318146,725.902405 364.807373,726.933960 
	C357.440277,731.964355 358.141113,740.471008 366.373169,744.449219 
	C378.205505,750.167236 387.821289,757.876526 391.402863,771.272644 
	C394.359924,782.332825 390.841614,792.738953 381.703064,799.662964 
	C374.889465,804.825439 367.065094,807.945984 358.696686,808.615356 
	C342.611725,809.901917 326.324860,811.564697 311.834564,801.544556 
	C306.138824,797.606079 301.656738,792.565186 297.436188,786.125977 
	C291.167999,799.049561 280.036102,803.688965 267.640808,805.110657 
	C257.596069,806.262695 247.344650,806.036743 237.255234,804.339172 
	C222.481995,801.853516 207.741837,799.245056 193.832092,793.326904 
	C189.814636,791.617676 186.115540,789.400330 182.612366,786.834717 
	C179.857330,784.816956 176.926315,782.223267 176.846039,778.976929 
	C176.650146,771.053894 170.342957,767.084106 166.922546,761.252319 
	C161.959503,752.790222 155.141632,748.998230 145.627716,746.570679 
	C120.184059,740.078308 100.647423,715.384644 97.674583,688.317383 
	C95.736961,670.675781 98.461395,654.173462 109.445831,639.667419 
	C110.147766,638.740417 110.835716,637.765076 111.701256,637.007751 
	C113.495758,635.437622 115.527687,634.010193 118.012001,635.174805 
	C120.254280,636.225891 120.607941,638.457581 120.646973,640.718567 
	C120.773727,648.059631 121.561531,655.333740 123.386284,662.445984 
	C125.860924,672.091309 130.139648,680.886719 136.528625,688.569885 
	C139.069885,691.625916 141.801498,694.530579 145.918121,696.467957 
	C146.814255,690.489868 147.496170,684.788879 148.542542,679.155640 
	C153.645004,651.686279 166.028061,627.889160 185.473633,607.913452 
	C194.997040,598.130432 205.180313,588.991516 215.008774,579.502869 
	C220.663666,574.043518 225.606339,567.981018 229.979248,561.006348 
M335.150513,775.207581 
	C335.912903,770.531433 338.686462,771.311768 341.209229,773.338867 
	C346.058594,777.235657 347.959564,782.737061 348.286346,788.755798 
	C348.510040,792.875854 348.329224,797.017822 348.329224,801.359009 
	C353.755676,802.304077 358.723145,801.058350 363.677979,799.723022 
	C367.937256,798.575134 369.928650,795.391724 370.532043,791.376282 
	C370.948853,788.602600 370.844696,785.748352 370.270294,782.926086 
	C369.358063,778.443604 367.498138,774.413574 365.055450,770.581360 
	C364.119537,769.112976 363.737457,767.331238 365.437897,766.092529 
	C367.119293,764.867493 368.629272,765.699219 369.807800,767.079102 
	C370.886475,768.342163 371.908508,769.665894 372.837097,771.042664 
	C377.229614,777.555115 378.186890,784.942566 377.709961,793.268188 
	C384.235138,787.484070 386.626129,781.187439 384.398743,773.498962 
	C381.120300,762.182312 373.162262,755.193970 362.567291,751.117249 
	C358.051636,749.379639 355.354553,746.514709 354.074127,742.097473 
	C353.148895,738.905701 352.369690,735.667053 351.642151,732.423157 
	C346.297699,708.593079 347.679352,684.401917 347.835297,660.278992 
	C347.841705,659.293640 348.046234,658.284424 348.317596,657.331604 
	C348.773193,655.731873 349.855255,654.758972 351.581512,654.769531 
	C353.502167,654.781250 354.777100,655.798828 355.093994,657.665771 
	C355.342560,659.130310 355.316650,660.650635 355.318085,662.146301 
	C355.330353,674.811340 355.054840,687.484070 355.419800,700.138489 
	C355.631165,707.467163 355.912781,714.900757 358.048492,722.556763 
	C359.923309,721.281616 361.410919,720.499268 362.623596,719.410645 
	C381.081879,702.840942 396.180298,683.800659 405.527252,660.588989 
	C407.643433,655.333740 409.134430,649.877747 410.333252,644.335571 
	C410.780884,642.266357 411.822113,640.449890 414.395172,640.855103 
	C417.277527,641.309082 417.425690,643.540649 417.229126,645.826965 
	C417.158661,646.646484 416.880463,647.447266 416.708374,648.258972 
	C413.414459,663.794434 406.759308,677.884644 398.085114,691.063232 
	C396.070526,694.123962 395.057617,697.197815 395.263367,700.878845 
	C396.183472,717.342529 397.757721,733.731384 401.680145,749.774780 
	C406.130829,767.978882 415.609222,781.305786 435.809509,784.148621 
	C443.223145,785.191895 445.590607,783.572632 445.675690,775.969604 
	C445.732483,770.893005 443.547180,766.644226 440.972900,762.500610 
	C439.899902,760.773560 438.657410,758.706299 440.819702,757.201416 
	C442.681641,755.905701 444.666504,756.989624 446.208893,758.472778 
	C448.167877,760.356506 449.378601,762.695984 450.418427,765.189697 
	C453.010681,771.406433 452.744781,777.757996 451.196686,784.208557 
	C456.269775,785.431396 460.801422,784.152893 465.313690,783.187927 
	C471.774994,781.806274 473.557953,779.396729 473.859528,772.890381 
	C474.128754,767.082642 472.087891,762.173706 468.750549,757.591919 
	C467.645599,756.075012 466.970886,754.177856 468.917206,752.713379 
	C470.690643,751.378906 472.013855,752.678894 473.274231,753.806641 
	C476.319305,756.531677 478.386719,759.870483 479.844208,763.689941 
	C481.201202,767.246033 480.914215,771.097839 481.747864,774.931641 
	C489.279175,769.397827 491.246887,759.697998 486.581085,751.010498 
	C482.198517,742.850403 475.527222,737.321899 466.375946,735.185303 
	C460.282806,733.762695 456.437744,730.700378 455.416412,723.995544 
	C453.123627,708.943787 452.921356,693.831604 453.355957,678.692444 
	C453.962677,657.558533 455.546326,636.424927 455.360107,615.303101 
	C455.147125,591.145142 451.717041,567.232605 445.521576,543.816406 
	C443.542572,536.336548 442.104431,528.639404 438.520508,521.310730 
	C433.243713,523.555725 428.320435,525.528137 423.500092,527.726257 
	C413.294861,532.379944 402.546143,535.294495 391.697906,537.914856 
	C389.289001,538.496765 386.806671,538.707642 385.952789,535.707092 
	C384.975861,532.274048 387.616302,531.474060 390.125580,530.791138 
	C391.730103,530.354370 393.365784,530.030640 394.966522,529.581543 
	C422.070007,521.976746 447.024475,510.149963 468.789459,492.037872 
	C503.236176,463.372467 514.346619,423.165924 499.307709,380.998505 
	C494.954254,368.791840 488.453705,357.413086 485.588776,344.609375 
	C481.777802,327.577545 477.847076,310.568146 473.648529,293.628265 
	C464.430603,256.436768 441.237701,231.595108 405.614929,218.371109 
	C374.733643,206.907227 342.813904,206.031738 310.587677,210.775085 
	C287.472961,214.177292 265.712860,221.663101 245.307617,233.163712 
	C226.684784,243.659729 212.157104,257.469452 205.548248,278.545776 
	C199.489212,297.868622 196.857727,317.787292 194.303589,337.742584 
	C191.619781,358.711029 188.956360,379.749329 181.726089,399.709045 
	C175.883148,415.838837 175.813080,432.197754 179.069443,448.382477 
	C186.014969,482.903137 207.860016,505.366180 239.629913,518.773193 
	C260.780823,527.698853 283.117035,532.255188 305.731262,535.563232 
	C308.344208,535.945435 311.204742,536.484192 310.827789,539.719849 
	C310.438904,543.057739 307.377869,543.673401 304.609711,543.134033 
	C289.111908,540.114563 273.366333,538.358521 258.107361,534.126465 
	C250.984131,532.150940 251.759277,531.117615 249.005844,538.638245 
	C242.742203,555.746582 234.079025,571.402466 221.121994,584.341736 
	C211.814026,593.636902 201.818466,602.246521 192.566635,611.594421 
	C166.464737,637.967468 152.747147,669.500366 154.380295,706.961243 
	C155.346405,729.120972 163.574402,748.360962 179.312744,764.171692 
	C181.154861,766.022278 182.705627,767.793579 182.694397,770.527954 
	C182.664581,777.775208 187.292908,781.641357 193.087219,784.472961 
	C210.120834,792.797058 228.538788,795.558044 247.100937,797.673340 
	C250.287918,798.036499 251.610916,796.283936 251.914688,793.323120 
	C252.444931,788.154785 251.465591,783.408447 248.453522,779.090088 
	C247.448364,777.648926 245.949768,775.920105 247.915085,774.251343 
	C249.820465,772.633545 251.687637,773.702881 253.306396,775.037537 
	C255.996429,777.255554 257.172913,780.350769 258.248871,783.545715 
	C259.761658,788.037720 259.348083,792.630310 258.840210,797.389282 
	C262.521729,798.133118 265.787140,797.789307 269.052826,797.182373 
	C275.983551,795.894287 277.904175,793.447388 277.669525,786.281433 
	C277.509521,781.396545 275.400055,777.332764 272.521240,773.541138 
	C271.509064,772.208008 270.525696,770.660217 271.968597,769.039001 
	C273.583679,767.224304 275.353729,768.131348 276.917084,769.141174 
	C279.509338,770.815613 281.105286,773.365295 282.593384,775.999268 
	C284.808868,779.920837 285.018280,784.395935 285.856110,789.281372 
	C289.032867,786.043152 290.468933,782.828247 290.678253,779.012268 
	C291.428467,765.334290 282.745605,754.544128 268.328583,751.297180 
	C259.460632,749.300049 250.795593,750.026489 242.329361,753.300537 
	C240.180740,754.131470 237.897934,754.713684 236.870926,751.926819 
	C235.888855,749.261902 237.901962,747.860779 239.970535,747.033264 
	C243.057266,745.798462 246.198578,744.328430 249.437515,743.922363 
	C256.428040,743.045837 260.721924,738.727539 264.497192,733.470642 
	C277.961365,714.722412 279.428223,694.222473 271.999664,673.121582 
	C267.354065,659.925598 258.015472,650.590454 243.941406,646.909241 
	C240.346100,645.968872 236.692581,646.031311 233.019135,646.226440 
	C230.469772,646.361877 227.453171,646.438354 227.194611,643.108826 
	C226.928207,639.678650 230.164688,639.436890 232.551086,639.224854 
	C235.511841,638.961853 238.570038,638.946228 241.504929,639.377075 
	C263.566956,642.614990 275.705200,656.602600 281.192017,677.117554 
	C285.026581,691.454773 284.898346,706.435425 287.313019,721.025757 
	C290.301666,739.083801 293.686310,757.020874 300.020020,774.295349 
	C305.782867,790.012695 316.639374,799.201965 333.297607,801.473450 
	C339.325378,802.295410 340.989410,800.911865 341.696960,794.834717 
	C342.553101,787.481262 339.428925,781.574707 335.150513,775.207581 
M598.636841,312.487671 
	C598.120850,298.530273 592.453369,286.620514 583.418701,276.373260 
	C557.085083,246.505386 524.973633,225.037964 487.383972,211.997116 
	C475.174866,207.761429 462.471344,205.848801 449.591217,209.333984 
	C442.185455,211.337891 435.186432,214.115906 430.465424,220.916168 
	C431.354950,221.680740 431.808624,222.175369 432.354980,222.525208 
	C461.224884,241.011703 476.659760,268.146240 483.383118,301.084961 
	C487.170776,319.641235 490.571716,338.331757 497.222717,356.167969 
	C502.121399,369.304901 509.077393,381.160278 520.143188,390.141785 
	C527.631165,396.219330 536.086060,398.771973 545.792969,396.891602 
	C555.029419,395.102417 562.057617,389.783386 567.442444,382.644135 
	C583.048340,361.953674 595.582458,339.758667 598.636841,312.487671 
M189.497208,318.123016 
	C190.694046,307.703186 192.538300,297.397003 195.266769,287.271240 
	C200.137512,269.195251 206.976486,252.190292 221.878036,239.705566 
	C222.061935,239.551514 221.983765,239.084656 222.040665,238.671143 
	C219.356018,235.581757 215.830811,233.739700 211.961639,232.601791 
	C200.346558,229.185852 189.205719,231.520416 178.324631,235.781891 
	C162.554153,241.958252 149.308380,251.965485 137.179886,263.541931 
	C117.840439,282.001099 99.901268,301.613892 86.825455,325.208954 
	C79.572830,338.296112 75.739403,352.001099 79.508209,366.915497 
	C82.399368,378.356720 88.093445,388.572845 94.811829,398.157928 
	C103.669144,410.794586 113.746689,422.287201 127.551468,429.830994 
	C138.778198,435.965973 148.874039,434.323883 158.033325,425.369568 
	C170.033005,413.638489 174.698837,398.435272 178.677032,382.838684 
	C184.030273,361.851166 186.073166,340.320709 189.497208,318.123016 
M121.263901,679.084045 
	C116.437454,669.486511 114.520111,659.109680 112.950821,648.538940 
	C101.169220,668.587341 102.086777,689.112244 111.953598,709.224121 
	C120.352402,726.343750 134.397858,737.001038 154.487289,741.119385 
	C150.632309,731.226562 148.009674,722.133850 147.209244,712.712097 
	C146.842834,708.399109 144.973785,705.819641 141.585449,703.550110 
	C132.655685,697.568909 126.253738,689.376770 121.263901,679.084045 
M280.358337,725.096985 
	C279.983826,724.295654 279.473938,722.633606 278.645111,724.441711 
	C275.734680,730.791138 271.858063,736.551575 267.302185,742.699524 
	C273.870209,744.815613 279.552582,747.114502 285.367981,750.822998 
	C283.609894,741.691040 282.072632,733.706055 280.358337,725.096985 
z"/>
<path fill="#000000" opacity="1.000000" stroke="none" 
	d="
M373.275146,467.685974 
	C393.023560,467.939697 407.902222,460.304871 417.319458,443.098907 
	C418.503235,440.935974 419.162262,438.484222 420.046844,436.159576 
	C420.942993,433.804565 420.840393,431.969727 417.868744,431.196777 
	C416.083008,430.732208 414.955139,429.255066 415.246460,427.439575 
	C415.595978,425.261261 417.464478,424.656067 419.437866,424.731995 
	C425.517975,424.965912 430.842194,427.067871 434.970673,431.624146 
	C436.510223,433.323212 438.269104,435.397705 436.008911,437.729980 
	C433.748352,440.062622 431.812408,438.445862 429.966492,436.849792 
	C429.501434,436.447662 428.906982,436.195221 427.982697,435.640198 
	C424.666168,451.244690 415.436310,462.021698 402.095215,469.572083 
	C400.138245,470.679565 399.569885,472.403412 399.188385,474.485077 
	C396.672577,488.212677 391.308990,500.565735 381.298676,510.587158 
	C361.662354,530.245239 332.637268,529.331726 314.081421,508.562988 
	C307.905365,501.650421 303.194214,493.850647 299.541046,485.393127 
	C298.138397,482.145844 296.072479,480.132019 292.623108,478.856140 
	C279.450226,473.983734 269.206909,465.701660 263.750641,452.200592 
	C263.107025,452.501892 262.584564,452.591156 262.310120,452.900482 
	C260.695068,454.720978 259.279266,457.610107 256.333038,455.421844 
	C253.468079,453.293884 254.920258,450.561493 256.512024,448.353058 
	C259.937439,443.600708 264.490814,440.359009 270.277161,439.065552 
	C272.370026,438.597687 274.413483,438.824066 275.291565,441.142517 
	C276.093994,443.261108 274.873260,444.773407 273.053009,445.547638 
	C268.922272,447.304749 270.466553,449.988647 271.906677,452.453156 
	C279.058624,464.692505 290.439240,470.724976 303.774780,473.617554 
	C315.625214,476.188019 326.433624,473.517426 336.534668,466.905304 
	C342.977448,462.687897 344.958893,457.042694 343.471863,449.797699 
	C343.204712,448.496124 342.728790,447.180542 342.767792,445.884003 
	C342.873169,442.378357 341.107178,441.584625 337.875092,441.217834 
	C328.072357,440.105438 319.048492,436.837799 311.994141,429.569183 
	C301.343414,418.594940 303.998352,403.973633 318.176666,398.497803 
	C333.322937,392.648132 349.125366,390.474670 365.174255,394.617706 
	C380.585266,398.596069 385.111084,413.681671 374.789917,426.007233 
	C369.420654,432.419189 362.706787,436.998108 354.773682,439.544769 
	C350.663422,440.864197 349.716248,443.157776 350.754395,447.076172 
	C351.386566,449.462219 351.853333,452.024841 351.694366,454.462494 
	C351.245605,461.344116 355.749084,463.628326 361.100952,465.348022 
	C364.921600,466.575653 368.813782,467.407867 373.275146,467.685974 
M355.283936,498.532532 
	C355.333923,501.207275 354.948639,503.973969 351.659119,503.991577 
	C348.503784,504.008514 347.875641,501.316620 347.662720,498.643463 
	C347.544647,497.161407 347.217621,495.697174 347.023041,494.219849 
	C346.713867,491.872559 345.252991,490.711914 343.038666,490.449890 
	C333.131653,489.277527 324.492249,492.395874 316.497955,497.883789 
	C316.784668,498.805176 316.816162,499.356567 317.091583,499.726196 
	C326.091095,511.804504 337.824554,518.477173 353.163544,516.693420 
	C367.146881,515.067322 376.721344,506.696289 383.664124,494.919220 
	C385.068909,492.536255 384.259338,490.889221 381.997131,489.585358 
	C375.725891,485.970825 369.106750,485.430115 362.224579,487.271210 
	C355.243195,489.138855 354.220886,490.717896 355.283936,498.532532 
z"/>
<path fill="#000000" opacity="1.000000" stroke="none" 
	d="
M281.646332,374.786682 
	C283.936005,381.328339 284.069366,387.566284 281.986847,393.746674 
	C279.786224,400.277618 274.117096,404.949738 268.112885,405.024261 
	C261.352478,405.108185 256.934723,401.247009 253.995758,395.566467 
	C250.725586,389.245819 250.111572,382.598450 252.187592,375.740387 
	C254.428116,368.339050 259.657074,363.264160 266.024872,363.143982 
	C273.846252,362.996338 278.569733,367.584198 281.646332,374.786682 
z"/>
<path fill="#000000" opacity="1.000000" stroke="none" 
	d="
M419.880798,389.198517 
	C408.929169,393.429810 398.853210,386.483917 396.885406,373.405762 
	C395.982849,367.407135 396.472961,361.444672 400.067352,356.137665 
	C404.917999,348.975891 414.305298,347.684052 421.022919,353.045471 
	C430.464935,360.581268 431.963440,382.529938 419.880798,389.198517 
z"/>
<path fill="#000000" opacity="1.000000" stroke="none" 
	d="
M249.009766,318.717224 
	C253.512787,316.833649 257.693237,315.309387 262.311951,316.569489 
	C264.258606,317.100616 265.716431,318.205200 265.651398,320.321442 
	C265.581451,322.597717 263.892487,323.293732 261.859314,323.365601 
	C252.865128,323.683319 246.564804,328.097137 242.602219,336.051941 
	C241.810013,337.642303 240.808578,339.114258 238.802719,338.121704 
	C237.096619,337.277466 236.796387,335.563110 237.247421,333.813538 
	C238.943924,327.232788 242.593903,322.122955 249.009766,318.717224 
z"/>
<path fill="#000000" opacity="1.000000" stroke="none" 
	d="
M422.124786,317.919952 
	C417.416412,312.163361 411.651489,309.423248 404.569672,309.460144 
	C402.845245,309.469116 401.054260,309.329926 400.706726,307.209717 
	C400.363678,305.117157 402.006195,304.381317 403.610168,303.779327 
	C412.138062,300.578430 427.363068,308.102631 429.994232,316.848053 
	C430.489502,318.494202 430.599274,320.171753 428.847107,321.260284 
	C427.361420,322.183289 425.944916,321.777588 424.731689,320.734436 
	C423.859070,319.984131 423.143463,319.051239 422.124786,317.919952 
z"/>
</svg>